<?xml version="1.0" ?>
<!DOCTYPE svg  PUBLIC '-//W3C//DTD SVG 1.1//EN'  'http://www.w3.org/Graphics/SVG/1.1/DTD/svg11.dtd'>
<!-- Uploaded to: SVG Repo, www.svgrepo.com, Generator: SVG Repo Mixer Tools -->
<svg fill="#000000" width="800px" height="800px" viewBox="0 0 512 512" enable-background="new 0 0 512 512" id="Layer_1" version="1.1" xml:space="preserve" xmlns="http://www.w3.org/2000/svg" xmlns:xlink="http://www.w3.org/1999/xlink">
<g>
<g>
<path d="M443,415.865H69c-5.523,0-10-4.478-10-10v-235c0-5.522,4.477-10,10-10h102v-42.73c0-12.131,9.869-22,22-22h126    c12.131,0,22,9.869,22,22v42.73h102c5.522,0,10,4.478,10,10v235C453,411.388,448.522,415.865,443,415.865z M79,395.865h354v-215    H331c-5.522,0-10-4.478-10-10v-52.73c0-1.103-0.897-2-2-2H193c-1.103,0-2,0.897-2,2v52.73c0,5.522-4.477,10-10,10H79V395.865z"/>
</g>
<g>
<path d="M256,380.938c-51.67,0-93.708-42.037-93.708-93.708S204.33,193.521,256,193.521c51.671,0,93.708,42.037,93.708,93.708    S307.671,380.938,256,380.938z M256,213.521c-40.643,0-73.708,33.065-73.708,73.708s33.065,73.708,73.708,73.708    s73.708-33.065,73.708-73.708S296.643,213.521,256,213.521z"/>
</g>
<g>
<path d="M256,333.938c-25.754,0-46.708-20.953-46.708-46.708s20.953-46.708,46.708-46.708c25.755,0,46.708,20.953,46.708,46.708    S281.755,333.938,256,333.938z M256,260.521c-14.727,0-26.708,11.981-26.708,26.708s11.981,26.708,26.708,26.708    s26.708-11.981,26.708-26.708S270.727,260.521,256,260.521z"/>
</g>
<g>
<path d="M411,213.521h-42c-5.522,0-10-4.478-10-10s4.478-10,10-10h42c5.522,0,10,4.478,10,10S416.522,213.521,411,213.521z"/>
</g>
<g>
<path d="M140,180.865H87c-5.523,0-10-4.478-10-10v-32c0-5.522,4.477-10,10-10h53c5.523,0,10,4.478,10,10v32    C150,176.388,145.523,180.865,140,180.865z M97,160.865h33v-12H97V160.865z"/>
</g>
</g>
</svg>